<?xml version="1.0" encoding="iso-8859-1"?>
<!-- Uploaded to: SVG Repo, www.svgrepo.com, Generator: SVG Repo Mixer Tools -->
<svg fill="#000000" height="800px" width="800px" version="1.1" id="Layer_1" xmlns="http://www.w3.org/2000/svg" xmlns:xlink="http://www.w3.org/1999/xlink" 
	 viewBox="0 0 512 512" xml:space="preserve">
<g>
	<g>
		<path d="M490.667,192h-21.333C457.551,192,448,201.551,448,213.333c0,11.782,9.551,21.333,21.333,21.333v42.667h-23.361
			l-14.974-149.665C427.393,91.53,396.968,64,360.64,64h-38.613c-29.9,0-55.786,18.657-66.026,45.409
			C245.761,82.658,219.874,64,189.973,64H151.36c-36.328,0-66.753,27.53-70.359,63.675L66.028,277.333H42.667v-42.667
			c11.782,0,21.333-9.551,21.333-21.333C64,201.551,54.449,192,42.667,192H21.333C9.551,192,0,201.551,0,213.333v85.333
			C0,310.449,9.551,320,21.333,320H64v42.667C64,374.449,73.551,384,85.333,384v42.667c0,11.782,9.551,21.333,21.333,21.333
			c11.782,0,21.333-9.551,21.333-21.333V384h64v42.667c0,11.782,9.551,21.333,21.333,21.333c11.782,0,21.333-9.551,21.333-21.333
			V384H256h21.333v42.667c0,11.782,9.551,21.333,21.333,21.333c11.782,0,21.333-9.551,21.333-21.333V384h64v42.667
			c0,11.782,9.551,21.333,21.333,21.333c11.782,0,21.333-9.551,21.333-21.333V384c11.782,0,21.333-9.551,21.333-21.333V320h42.667
			c11.782,0,21.333-9.551,21.333-21.333v-85.333C512,201.551,502.449,192,490.667,192z M405.333,341.333h-128V320h128V341.333z
			 M234.667,341.333h-128V320h128V341.333z M294.123,131.916c1.43-14.331,13.496-25.249,27.903-25.249h38.613
			c14.408,0,26.474,10.918,27.903,25.243l14.55,145.424H279.574L294.123,131.916z M123.457,131.916
			c1.43-14.331,13.496-25.249,27.903-25.249h38.613c14.408,0,26.474,10.918,27.903,25.243l14.55,145.424H108.908L123.457,131.916z"
			/>
	</g>
</g>
</svg>