<?xml version="1.0" encoding="iso-8859-1"?>
<!-- Uploaded to: SVG Repo, www.svgrepo.com, Generator: SVG Repo Mixer Tools -->
<!DOCTYPE svg PUBLIC "-//W3C//DTD SVG 1.1//EN" "http://www.w3.org/Graphics/SVG/1.1/DTD/svg11.dtd">
<svg fill="#000000" height="800px" width="800px" version="1.1" id="Capa_1" xmlns="http://www.w3.org/2000/svg" xmlns:xlink="http://www.w3.org/1999/xlink" 
	 viewBox="0 0 295.912 295.912" xml:space="preserve">
<path id="XMLID_19_" d="M276.482,113.884h-5.618l14.626-25.3c2.741-4.739,1.113-10.809-3.633-13.549
	c-4.735-2.757-10.817-1.118-13.549,3.623l-17.26,29.851l-35.363-30.273c-1.8-1.535-4.087-2.383-6.449-2.383h-87.5
	c-2.188,0-4.32,0.727-6.054,2.063l-51.827,39.974l-19.458-0.223c-18.229,0-33.919,12.387-38.142,30.127l-5.783,24.239
	c-1.22,5.151-0.057,10.512,3.245,14.75c3.293,4.175,8.224,6.591,13.54,6.625l36.438,0.207c4.242,16.428,19.186,28.602,36.922,28.602
	c17.608,0,32.475-12.014,36.814-28.28c16.678,0.052,33.221,0.086,48.272,0.086l6.325-0.004
	c4.378,16.223,19.217,28.198,36.805,28.198c19.178,0,35.091-14.237,37.725-32.697l24.234-5.501
	c8.9-2.021,15.119-9.812,15.119-18.941v-31.769C295.912,122.597,287.195,113.884,276.482,113.884z"/>
</svg>